<?xml version="1.0" encoding="UTF-8" standalone="no"?>
<!DOCTYPE svg PUBLIC "-//W3C//DTD SVG 1.1//EN" "http://www.w3.org/Graphics/SVG/1.1/DTD/svg11.dtd">
<svg width="100%" height="100%" viewBox="0 0 559 219" version="1.1" xmlns="http://www.w3.org/2000/svg" xmlns:xlink="http://www.w3.org/1999/xlink" xml:space="preserve" xmlns:serif="http://www.serif.com/" style="fill-rule:evenodd;clip-rule:evenodd;stroke-linecap:round;stroke-linejoin:round;stroke-miterlimit:1.5;">
    <g transform="matrix(1,0,0,1,-113.161,-351.785)">
        <g id="Traced" transform="matrix(-1,1.22465e-16,-1.22465e-16,-1,798.534,872.41)">
            <path d="M190.994,459.203C217.78,457.406 247.194,456.528 281.423,476.322C315.651,496.117 390.822,485.622 412.771,472.87C441.9,455.947 460.201,426.637 469.287,386.45" style="fill:none;stroke:rgb(178,144,98);stroke-width:6px;"/>
            <path d="M311.637,404.975C356.245,485.694 409.188,470.193 443.768,460.111C505.568,442.092 499.836,515.274 610.744,447.687" style="fill:none;stroke:rgb(178,144,98);stroke-width:6px;"/>
            <g transform="matrix(1.01064,-0.00588402,0.00588402,1.01064,19.8503,-39.4734)">
                <path d="M384.803,504.366C372.588,512.577 350.546,523.667 330.205,524.01C309.863,524.353 284.512,525.825 265.236,516.921C245.961,508.018 232.401,497.323 226.176,483.864C216.447,462.829 216.453,439.284 215.836,424.41" style="fill:none;stroke:rgb(178,144,98);stroke-width:5.94px;"/>
                <g transform="matrix(0.0332846,0.951217,0.951217,-0.0332846,-126.816,367.228)">
                    <path d="M170.268,423.684C170.268,412.36 148.976,406.379 149.697,420.978C150.016,427.427 161.998,427.21 161.925,420.771C161.784,417.176 166.472,421.768 170.268,423.684Z" style="fill:rgb(178,144,98);stroke:rgb(178,144,98);stroke-width:2.08px;"/>
                </g>
                <g transform="matrix(-0.660999,0.327358,0.365607,0.73823,184.786,68.4713)">
                    <path d="M170.268,423.684C170.268,412.36 148.797,404.964 149.518,419.564C149.837,426.012 161.998,427.21 161.925,420.771C161.784,417.176 166.472,421.768 170.268,423.684Z" style="fill:rgb(178,144,98);stroke:rgb(178,144,98);stroke-width:2.53px;"/>
                </g>
                <g transform="matrix(-0.360923,0.631403,0.789601,0.451352,-35.699,175.88)">
                    <path d="M170.268,423.684C170.268,412.36 151.155,405.663 149.583,417.976C148.766,424.38 161.998,427.21 161.925,420.771C161.784,417.176 166.472,421.768 170.268,423.684Z" style="fill:rgb(178,144,98);stroke:rgb(178,144,98);stroke-width:2.4px;"/>
                </g>
                <g transform="matrix(-0.330776,0.755505,0.83266,0.364556,-36.4029,220.958)">
                    <path d="M170.268,423.684C170.268,412.36 150.746,407.538 149.583,417.976C148.869,424.393 159.554,429.383 161.925,420.771C161.784,417.176 166.472,421.768 170.268,423.684Z" style="fill:rgb(178,144,98);stroke:rgb(178,144,98);stroke-width:2.28px;"/>
                </g>
                <g transform="matrix(0.886942,0.584541,-0.585142,0.887854,302.342,-31.5344)">
                    <path d="M169.756,421.528C169.756,410.204 148.833,409.219 147.671,419.657C146.956,426.074 159.554,429.383 161.925,420.771C161.784,417.176 165.96,419.612 169.756,421.528Z" style="fill:rgb(178,144,98);stroke:rgb(178,144,98);stroke-width:1.86px;"/>
                </g>
                <g transform="matrix(0.867237,0.611513,0.640285,-0.90804,-80.8266,792.082)">
                    <path d="M169.756,421.528C169.756,410.204 148.833,409.219 147.671,419.657C146.956,426.074 153.938,424.748 157.17,421.707C160.295,418.768 165.96,419.612 169.756,421.528Z" style="fill:rgb(178,144,98);stroke:rgb(178,144,98);stroke-width:1.82px;"/>
                </g>
                <g transform="matrix(0.74254,0.71485,0.703883,-0.731149,-113.339,703.342)">
                    <path d="M172.174,423.528C170.085,414.552 152.618,410.492 148.789,415.965C142.928,424.341 158.941,433.731 158.615,423.453C158.477,419.103 168.378,421.613 172.174,423.528Z" style="fill:rgb(178,144,98);stroke:rgb(178,144,98);stroke-width:1.93px;"/>
                </g>
                <g transform="matrix(-0.177934,0.882193,0.952407,0.192095,-124.21,262.254)">
                    <path d="M169.756,421.528C162.975,410.085 150.354,410.667 149.018,417.243C147.731,423.578 154.554,425.594 159.242,421.978C162.654,419.346 165.96,419.612 169.756,421.528Z" style="fill:rgb(178,144,98);stroke:rgb(178,144,98);stroke-width:2.11px;"/>
                </g>
                <g transform="matrix(-0.542805,0.509867,0.598091,0.636728,69.9023,99.1924)">
                    <path d="M170.268,423.684C170.268,412.36 148.797,404.964 149.518,419.564C149.837,426.012 160.234,426.897 161.925,420.771C162.738,417.494 166.425,422.579 170.268,423.684Z" style="fill:rgb(178,144,98);stroke:rgb(178,144,98);stroke-width:2.44px;"/>
                </g>
                <g transform="matrix(0.954368,-0.298634,0.298634,0.954368,-72.3847,124.202)">
                    <path d="M170.268,423.684C170.268,412.36 148.976,406.379 149.697,420.978C150.016,427.427 161.724,428.32 161.65,421.882C161.51,418.286 166.472,421.768 170.268,423.684Z" style="fill:rgb(178,144,98);stroke:rgb(178,144,98);stroke-width:1.98px;"/>
                </g>
                <g transform="matrix(0.969153,0.246458,-0.246458,0.969153,148.027,9.33267)">
                    <path d="M170.268,423.684C170.268,412.36 148.976,406.379 149.697,420.978C150.016,427.427 159.724,427.961 160.565,421.523C160.424,417.928 166.472,421.768 170.268,423.684Z" style="fill:rgb(178,144,98);stroke:rgb(178,144,98);stroke-width:1.98px;"/>
                </g>
            </g>
            <g transform="matrix(1,0,0,1,20.5213,-37.4646)">
                <path d="M211.319,382.986C207.861,383.081 191.045,403.133 192.487,408.424C193.93,413.715 213.953,422.848 220.054,422.599C226.156,422.35 238.107,403.15 237.801,399.014C237.495,394.879 214.778,382.891 211.319,382.986Z" style="fill:rgb(178,144,98);stroke:rgb(178,144,98);stroke-width:6px;"/>
            </g>
            <g transform="matrix(0.957372,0.0301669,-0.0301669,0.957372,41.4441,-28.2861)">
                <path d="M211.319,382.986C207.861,383.081 191.045,403.133 192.487,408.424C193.93,413.715 213.953,422.848 220.054,422.599C226.156,422.35 238.107,403.15 237.801,399.014C237.495,394.879 214.778,382.891 211.319,382.986Z" style="fill:rgb(248,82,77);"/>
            </g>
            <g transform="matrix(0.0565624,0.900439,-0.900439,0.0565624,754.798,-53.6179)">
                <path d="M544.145,368.626C543.554,343.398 538.82,307.86 530.969,291.343C523.118,274.826 509.217,253.982 493.9,247.229C478.583,240.477 464.359,236.515 456.529,236.017" style="fill:none;stroke:rgb(178,144,98);stroke-width:6.65px;"/>
                <path d="M509.628,256.344C505.358,248.889 508.02,227.529 500.502,216.504C492.984,205.479 476.796,197.777 466.423,204.318C474.568,212.869 493.768,250.828 500.208,254.945C506.649,259.062 513.898,263.799 509.628,256.344Z" style="fill:rgb(171,129,72);stroke:rgb(178,144,98);stroke-width:4.43px;"/>
                <path d="M538.308,314.789C536.474,303.176 548.472,270.988 544.866,256.385C541.26,241.783 527.311,233.035 519.79,234.633C522.756,245.848 520.856,269.636 525.141,279.746C529.425,289.856 540.142,326.401 538.308,314.789Z" style="fill:rgb(171,129,72);stroke:rgb(178,144,98);stroke-width:4.43px;"/>
                <path d="M458.576,235.99C457.355,230.045 443.125,224.443 436.352,224.691C429.579,224.939 414.646,230.185 410.834,232.019C407.023,233.853 405.674,235.969 399.674,237.733C393.673,239.496 410.113,251.458 420.52,251.063C430.928,250.669 443.884,246.902 449.625,242.889C455.366,238.877 454.181,239.127 458.576,235.99Z" style="fill:rgb(171,129,72);stroke:rgb(178,144,98);stroke-width:4.43px;"/>
                <path d="M512.27,261.144C503.982,250.261 497.929,247.572 487.606,246.911C477.284,246.249 472.118,245.451 463.386,249.374C454.653,253.298 445.264,263.957 442.975,267.527C447.749,270.985 453.409,273.261 460.904,272.788C475.742,271.851 476.459,263.622 484.402,260.699C492.519,257.712 501.304,257.845 512.27,261.144Z" style="fill:rgb(171,129,72);stroke:rgb(178,144,98);stroke-width:4.43px;"/>
                <path d="M545.72,348.219C544.246,337.347 548.546,313.075 551.18,306.442C553.815,299.81 558.878,292.653 557.328,280.859C563.593,281.829 571.628,291.569 572.614,300.793C573.857,312.41 571.385,316.783 567.523,323.692C563.3,331.246 554.707,342.246 545.72,348.219Z" style="fill:rgb(171,129,72);stroke:rgb(178,144,98);stroke-width:4.43px;"/>
                <path d="M543.905,369.345C543.905,369.345 541.328,339.248 538.682,332.415C536.416,326.563 522.943,314.199 512.889,313.513C500.699,312.681 506.245,324.635 513.516,329.711C521.355,335.184 533.05,348.307 536.321,354.01C539.219,359.065 543.905,369.345 543.905,369.345Z" style="fill:rgb(171,129,72);stroke:rgb(178,144,98);stroke-width:4.43px;"/>
                <path d="M537.201,313.892C537.201,313.892 533.442,307.928 522.639,305.797C511.835,303.666 502.727,302.732 496.187,297.285C489.647,291.838 489.975,283.196 481.771,278.575C491.287,277.494 504.766,276.715 513.206,281.455C521.943,286.362 534.229,301.044 537.201,313.892Z" style="fill:rgb(171,129,72);stroke:rgb(178,144,98);stroke-width:4.43px;"/>
            </g>
            <g transform="matrix(-0.823505,-0.149704,0.155053,-0.852925,818.695,892.184)">
                <path d="M368.467,434.913C368.467,434.913 370.757,418.35 366.363,406.151C356.123,417.936 333.541,442.704 313.071,446.524C292.601,450.344 260.506,442.668 253.159,428.732C248.001,418.951 250.738,407.853 254.78,404.874C258.439,402.176 261.522,401.697 266.576,402.447C276.04,403.85 278.797,408.615 277.483,413.106C276.169,417.596 266.999,417.164 266.999,417.164C266.999,417.164 272.732,423.253 277.81,424.107C285.641,425.425 291.451,422.598 295.004,413.774C298.557,404.95 292.464,396.247 282.338,392.139C274.835,389.094 264.699,389.931 257.431,395.93C251.03,401.215 247.432,410.045 246.602,419.157C243.689,451.157 257.451,471.234 275.3,479.717C300.28,491.589 322.679,492.575 352.083,481.133C369.614,474.311 387.348,456.311 391.637,443.296C383.519,442.623 368.467,434.913 368.467,434.913Z" style="fill:rgb(71,101,90);stroke:rgb(178,144,98);stroke-width:4.69px;"/>
            </g>
            <g transform="matrix(0.537952,-0.842975,0.842975,0.537952,6.46896,463.571)">
                <g transform="matrix(-0.660328,0.599359,0.599359,0.660328,307.509,-80.1106)">
                    <path d="M320.695,356.699C322.468,349.933 331.49,341.82 338.656,340.846C348.248,339.542 361.615,344.998 367.455,353.735C354.176,358.912 353.007,370.663 338.062,370.835C329.92,370.928 318.921,363.464 320.695,356.699Z" style="fill:rgb(71,101,90);stroke:rgb(178,144,98);stroke-width:4.49px;"/>
                </g>
                <g transform="matrix(-0.983404,0.426072,-0.426072,-0.983404,770.402,552.09)">
                    <path d="M314.221,343.618C303.846,333.758 305.484,307.539 329.157,297.757C343.4,319.83 326.497,340.939 314.221,343.618Z" style="fill:rgb(71,101,90);stroke:rgb(178,144,98);stroke-width:3.73px;"/>
                </g>
                <g transform="matrix(1,0,0,1,1.81725,1.71591)">
                    <path d="M311.758,344.622C313.886,340.832 311.929,330.501 305.33,323.515C298.731,316.529 286.092,318.771 279.024,311.006C278.478,318.602 274.896,337.178 287.374,345.289C298.283,352.381 309.125,349.313 311.758,344.622Z" style="fill:rgb(71,101,90);stroke:rgb(178,144,98);stroke-width:4px;"/>
                </g>
                <g transform="matrix(1,0,0,1,1.17974,0.554473)">
                    <path d="M314.221,343.618C303.846,333.758 301.963,309.294 327.204,302.265C346.858,323.46 326.497,340.939 314.221,343.618Z" style="fill:rgb(71,101,90);stroke:rgb(178,144,98);stroke-width:4px;"/>
                </g>
                <path d="M320.801,348.474C322.575,341.708 325.846,332.751 337.052,336.126C350.911,340.3 361.194,354.179 361.194,354.179C361.194,354.179 348.925,365.047 333.945,365.732C325.811,366.105 319.027,355.239 320.801,348.474Z" style="fill:rgb(71,101,90);stroke:rgb(178,144,98);stroke-width:4px;"/>
                <g transform="matrix(0.970874,0,0,0.970874,2.4594,11.9626)">
                    <circle cx="322.071" cy="345.937" r="13.467" style="fill:rgb(178,144,98);stroke:rgb(178,144,98);stroke-width:4.12px;"/>
                </g>
                <g transform="matrix(0.885869,0.0670419,-0.0670419,0.885869,53.7613,20.009)">
                    <circle cx="322.071" cy="345.937" r="13.467" style="fill:rgb(248,82,77);"/>
                </g>
            </g>
            <g transform="matrix(-0.383806,0.10284,-0.10284,-0.383806,693.929,530.709)">
                <path d="M748.011,305.234C748.011,305.234 741.274,267.087 708.033,255.263C674.791,243.44 637.689,244.307 625.777,261.265C620.564,260.109 607.271,261.955 598.334,282.302C583.059,278.519 560.636,315.455 566.105,327.753C550.121,335.594 540.987,339.947 539.596,363.709C536.631,375.76 547.323,402.802 558.259,408.913C556.786,415.465 558.365,431.49 572.041,440.498C574.841,453.619 586.971,472.069 606.048,476.091C607.294,486.789 639.664,496.898 647.916,489.671C657.046,497.094 672.992,492.313 679.794,486.376C695.358,491.81 722.526,476.078 727.538,460.737C737.611,457.252 750.55,440.671 748.378,429.016C766.991,425.874 766.375,397.415 776.347,387.05C782.868,380.201 775.73,324.002 763.168,313.882C750.607,303.761 748.011,305.234 748.011,305.234Z" style="fill:rgb(71,101,90);"/>
                <clipPath id="_clip1">
                    <path d="M748.011,305.234C748.011,305.234 741.274,267.087 708.033,255.263C674.791,243.44 637.689,244.307 625.777,261.265C620.564,260.109 607.271,261.955 598.334,282.302C583.059,278.519 560.636,315.455 566.105,327.753C550.121,335.594 540.987,339.947 539.596,363.709C536.631,375.76 547.323,402.802 558.259,408.913C556.786,415.465 558.365,431.49 572.041,440.498C574.841,453.619 586.971,472.069 606.048,476.091C607.294,486.789 639.664,496.898 647.916,489.671C657.046,497.094 672.992,492.313 679.794,486.376C695.358,491.81 722.526,476.078 727.538,460.737C737.611,457.252 750.55,440.671 748.378,429.016C766.991,425.874 766.375,397.415 776.347,387.05C782.868,380.201 775.73,324.002 763.168,313.882C750.607,303.761 748.011,305.234 748.011,305.234Z"/>
                </clipPath>
                <g clip-path="url(#_clip1)">
                    <path d="M679.927,332.447C683.578,291.385 669.346,272.782 643.56,267.361C617.775,261.94 600.614,280.62 598.163,282.776" style="fill:none;stroke:rgb(178,144,98);stroke-width:10.07px;"/>
                    <path d="M696.507,354.862C696.507,354.862 710.861,353.136 724.754,345.306C738.647,337.476 751.961,325.701 748.063,305.463C744.164,285.224 726.217,282.201 726.217,282.201C726.217,282.201 728.478,261.489 708.283,255.379" style="fill:none;stroke:rgb(178,144,98);stroke-width:10.07px;"/>
                    <path d="M640.497,354.862C640.497,354.862 633.66,326.565 600.5,325.848C567.34,325.131 550.518,328.273 548.809,337.29" style="fill:none;stroke:rgb(178,144,98);stroke-width:10.07px;"/>
                    <path d="M666.845,393.699C666.845,393.699 680.867,409.487 681.538,423.702C682.79,450.189 670.675,480.361 648.076,489.636" style="fill:none;stroke:rgb(178,144,98);stroke-width:10.07px;"/>
                    <path d="M621.829,391.381C621.829,391.381 570.474,402.803 572.738,442.077" style="fill:none;stroke:rgb(178,144,98);stroke-width:10.07px;"/>
                    <path d="M693.353,395.552C693.353,395.552 711.903,394.755 720.292,397.705C728.68,400.656 740.269,406.308 748.494,429.315" style="fill:none;stroke:rgb(178,144,98);stroke-width:10.07px;"/>
                    <g transform="matrix(0.545309,0,0,0.545309,296.367,145.487)">
                        <circle cx="670.146" cy="351.573" r="17.819" style="fill:rgb(248,82,77);stroke:rgb(248,82,77);stroke-width:4.62px;"/>
                    </g>
                    <g transform="matrix(0.460914,0,0,0.460914,384.268,197.74)">
                        <circle cx="670.146" cy="351.573" r="17.819" style="fill:rgb(248,82,77);stroke:rgb(248,82,77);stroke-width:5.46px;"/>
                    </g>
                    <g transform="matrix(0.545309,0,0,0.545309,277.812,189.881)">
                        <circle cx="670.146" cy="351.573" r="17.819" style="fill:rgb(248,82,77);stroke:rgb(248,82,77);stroke-width:4.62px;"/>
                    </g>
                    <g transform="matrix(0.392737,0,0,0.392737,435.026,245.302)">
                        <circle cx="670.146" cy="351.573" r="17.819" style="fill:rgb(248,82,77);stroke:rgb(248,82,77);stroke-width:6.41px;"/>
                    </g>
                    <g transform="matrix(0.392737,0,0,0.392737,415.995,264.334)">
                        <circle cx="670.146" cy="351.573" r="17.819" style="fill:rgb(248,82,77);stroke:rgb(248,82,77);stroke-width:6.41px;"/>
                    </g>
                    <g transform="matrix(0.538692,0,0,0.538692,322.198,155)">
                        <circle cx="670.146" cy="351.573" r="17.819" style="fill:rgb(248,82,77);stroke:rgb(248,82,77);stroke-width:4.67px;"/>
                    </g>
                    <g transform="matrix(0.555201,0,0,0.56291,310.347,179.584)">
                        <circle cx="670.146" cy="351.573" r="17.819" style="fill:rgb(248,82,77);stroke:rgb(248,82,77);stroke-width:4.5px;"/>
                    </g>
                    <g transform="matrix(0.555201,0,0,0.56291,291.407,188.57)">
                        <circle cx="670.146" cy="351.573" r="17.819" style="fill:rgb(248,82,77);stroke:rgb(248,82,77);stroke-width:4.5px;"/>
                    </g>
                    <g transform="matrix(0.555201,0,0,0.56291,257.892,168.558)">
                        <circle cx="670.146" cy="351.573" r="17.819" style="fill:rgb(248,82,77);stroke:rgb(248,82,77);stroke-width:4.5px;"/>
                    </g>
                    <g transform="matrix(0.555201,0,0,0.56291,277.153,159.406)">
                        <circle cx="670.146" cy="351.573" r="17.819" style="fill:rgb(248,82,77);stroke:rgb(248,82,77);stroke-width:4.5px;"/>
                    </g>
                </g>
                <path d="M748.011,305.234C748.011,305.234 741.274,267.087 708.033,255.263C674.791,243.44 637.689,244.307 625.777,261.265C620.564,260.109 607.271,261.955 598.334,282.302C583.059,278.519 560.636,315.455 566.105,327.753C550.121,335.594 540.987,339.947 539.596,363.709C536.631,375.76 547.323,402.802 558.259,408.913C556.786,415.465 558.365,431.49 572.041,440.498C574.841,453.619 586.971,472.069 606.048,476.091C607.294,486.789 639.664,496.898 647.916,489.671C657.046,497.094 672.992,492.313 679.794,486.376C695.358,491.81 722.526,476.078 727.538,460.737C737.611,457.252 750.55,440.671 748.378,429.016C766.991,425.874 766.375,397.415 776.347,387.05C782.868,380.201 775.73,324.002 763.168,313.882C750.607,303.761 748.011,305.234 748.011,305.234Z" style="fill:none;stroke:rgb(178,144,98);stroke-width:10.07px;"/>
            </g>
            <g transform="matrix(0.839114,-0.276563,0.276563,0.839114,-172.98,245.324)">
                <path d="M345.166,367.331C355.413,372.246 369.09,429.44 325.157,429.621C312.237,428.85 301.415,420.382 301.415,420.382" style="fill:none;stroke:rgb(178,144,98);stroke-width:6.79px;"/>
                <path d="M310.732,407.436C312.246,412.566 310.75,420.888 308.601,423.824" style="fill:none;stroke:rgb(178,144,98);stroke-width:5.66px;"/>
                <path d="M317.984,408.55C318.932,416.926 321.905,424.501 327.149,429.033" style="fill:none;stroke:rgb(178,144,98);stroke-width:5.66px;"/>
                <path d="M325.87,408.56C328.93,416.683 335.264,422.788 339.655,425.236" style="fill:none;stroke:rgb(178,144,98);stroke-width:6.23px;"/>
                <path d="M333.489,406.968C342.227,416.684 345.859,417.449 349.991,417.602" style="fill:none;stroke:rgb(178,144,98);stroke-width:6.79px;"/>
                <path d="M335.469,399.963C342.145,397.988 346.119,403.301 353.098,410.931" style="fill:none;stroke:rgb(178,144,98);stroke-width:6.79px;"/>
                <path d="M335.802,388.996C337.933,389.118 339.904,389.399 341.808,389.852C346.15,390.886 350.144,392.814 354.893,395.783" style="fill:none;stroke:rgb(178,144,98);stroke-width:7.36px;"/>
                <path d="M336.954,381.252C342.884,379.569 349.087,381.716 353.378,385.293" style="fill:none;stroke:rgb(178,144,98);stroke-width:7.36px;"/>
                <path d="M334.567,373.763C335.913,371.898 339.288,371.448 343.049,374.105" style="fill:none;stroke:rgb(178,144,98);stroke-width:7.36px;"/>
                <path d="M303.034,401.598C304.542,409.179 302.425,416.876 300.998,419.921" style="fill:none;stroke:rgb(178,144,98);stroke-width:5.66px;"/>
            </g>
            <g transform="matrix(0.77779,-0.239943,0.239943,0.77779,-412.398,477.63)">
                <path d="M701.955,169.644C701.955,169.644 683.102,158.99 677.45,154.817C672.696,151.307 664.53,142.495 668.878,136.094C672.729,130.424 675.889,129.793 677.42,131.317C678.952,132.841 677.713,134.54 675.241,136.733C673.559,138.225 671.709,141.735 674.225,146.139C677.523,151.913 701.955,169.644 701.955,169.644Z" style="fill:rgb(178,144,98);stroke:rgb(178,144,98);stroke-width:2.46px;"/>
                <path d="M696.694,168.271C696.694,168.271 679.999,162.021 677.094,161.145C674.189,160.269 667.122,158.537 664.858,154.191C663.209,151.027 667.077,148.77 664.155,147.22C661.232,145.669 658.551,152.209 660.587,155.886C664.176,162.368 680.607,165.037 680.607,165.037L696.694,168.271Z" style="fill:rgb(178,144,98);stroke:rgb(178,144,98);stroke-width:2.46px;"/>
                <path d="M684.49,191.53C684.49,191.53 667.297,185.475 661.333,184.301C655.369,183.128 647.314,181.387 642.795,182.764C638.277,184.14 636.189,185.559 636.759,188.169C637.329,190.779 639.097,191.185 641.795,190.394C645.233,189.387 642.505,188.343 647.905,187.244C653.305,186.146 661.22,187.814 661.22,187.814L684.49,191.53Z" style="fill:rgb(178,144,98);stroke:rgb(178,144,98);stroke-width:2.46px;"/>
                <path d="M689.706,203.173C689.706,203.173 678.204,200.641 674.214,198.716C668.627,196.022 663.865,193.811 657.904,193.268C653.796,192.893 646.517,193.173 643.854,194.919C641.032,196.769 640.507,200.388 643.01,202.76C645.514,205.132 649.213,204.49 650.229,202.848C650.97,201.649 649.039,200.051 647.836,199.342C645.09,197.723 650.792,196.552 657.996,197.528C665.201,198.505 674.932,202.55 680.643,203.052C686.354,203.555 689.706,203.173 689.706,203.173Z" style="fill:rgb(178,144,98);stroke:rgb(178,144,98);stroke-width:2.46px;"/>
                <path d="M690.8,132.739C690.8,132.739 699.059,147.712 708.902,151.162C718.745,154.612 732.595,158.662 740.236,168.867C747.877,179.073 749.582,196.563 745.742,206.555C742.149,215.908 734.653,221.798 723.668,226.537C713.932,230.738 698.075,230.613 685.105,228.294C676.07,226.678 660.109,217.279 647.341,226.064C653.1,211.092 670.904,199.678 682.787,201.045C670.904,199.678 658.787,175.274 650.406,174.468C642.025,173.662 678.67,161.608 693.158,165.027C707.574,168.478 683.235,158.932 684.183,146.299C684.788,138.243 690.8,132.739 690.8,132.739Z" style="fill:rgb(71,101,90);stroke:rgb(178,144,98);stroke-width:4.91px;"/>
                <g transform="matrix(1.17397,0.362162,-0.362162,1.17397,675.923,-360.892)">
                    <path d="M140.489,404.054C151.134,404.254 188.754,414.049 189.087,422.477C189.392,430.221 147.714,434.818 139.106,435.639" style="fill:none;stroke:rgb(178,144,98);stroke-width:4px;"/>
                </g>
            </g>
            <g transform="matrix(-0.435577,0.630376,-0.630376,-0.435577,772.82,307.556)">
                <path d="M428.352,374.107C421.786,375.641 419.285,460.857 345.128,506.468C417.231,512.33 494.796,417.693 494.472,409.2C494.147,400.707 434.917,372.573 428.352,374.107Z" style="fill:rgb(71,101,90);"/>
                <clipPath id="_clip2">
                    <path d="M428.352,374.107C421.786,375.641 419.285,460.857 345.128,506.468C417.231,512.33 494.796,417.693 494.472,409.2C494.147,400.707 434.917,372.573 428.352,374.107Z"/>
                </clipPath>
                <g clip-path="url(#_clip2)">
                    <g transform="matrix(1,0,0,1,0.563512,-4.92985)">
                        <path d="M460.912,392.232C456.94,411.709 419.49,467.909 399.224,480.418" style="fill:none;stroke:rgb(178,144,98);stroke-width:5.22px;"/>
                    </g>
                </g>
                <path d="M428.352,374.107C421.786,375.641 419.285,460.857 345.128,506.468C417.231,512.33 494.796,417.693 494.472,409.2C494.147,400.707 434.917,372.573 428.352,374.107Z" style="fill:none;stroke:rgb(178,144,98);stroke-width:5.22px;"/>
            </g>
            <g transform="matrix(1,0,0,1,26.735,34.7488)">
                <g transform="matrix(1,0,0,1,0.162739,-2.39038)">
                    <path d="M563.469,427.056C562.418,431.965 562.525,435.003 562.524,437.633" style="fill:none;stroke:rgb(178,144,98);stroke-width:4px;"/>
                </g>
                <g transform="matrix(1,0,0,1,0.338101,-5.59141)">
                    <path d="M576.236,423.852C575.938,426.989 576.165,429.838 576.839,431.709" style="fill:none;stroke:rgb(178,144,98);stroke-width:4px;"/>
                </g>
                <g transform="matrix(1,0,0,1,-0.272245,-4.9212)">
                    <path d="M570.452,425.799C569.894,430.709 570.512,432.721 570.511,435.039" style="fill:none;stroke:rgb(178,144,98);stroke-width:4px;"/>
                </g>
                <g transform="matrix(1,0,0,1,1.71814,-7.28218)">
                    <path d="M582.163,422.27C582.415,424.237 582.161,427.723 582.335,429.31" style="fill:none;stroke:rgb(178,144,98);stroke-width:4px;"/>
                </g>
                <path d="M591.703,411.781C591.406,412.545 591.385,416.245 591.41,417.371" style="fill:none;stroke:rgb(178,144,98);stroke-width:4px;"/>
                <path d="M598.185,411.399C597.873,412.604 598.024,415.035 598.14,416.023" style="fill:none;stroke:rgb(178,144,98);stroke-width:4px;"/>
                <path d="M553.619,430.585C559.53,426.286 581.611,411.042 598.084,410.991C617.943,410.929 628.362,416.23 635.122,423.089" style="fill:none;stroke:rgb(178,144,98);stroke-width:4px;"/>
            </g>
            <g transform="matrix(0.827396,0,0,0.827396,-160.826,107.13)">
                <g transform="matrix(-0.858516,-0.453371,0.453371,-0.858516,630.157,896.279)">
                    <circle cx="322.071" cy="345.937" r="13.467" style="fill:rgb(178,144,98);stroke:rgb(178,144,98);stroke-width:4.98px;"/>
                </g>
                <g transform="matrix(-0.752043,-0.47296,0.47296,-0.752043,588.55,865.207)">
                    <circle cx="322.071" cy="345.937" r="13.467" style="fill:rgb(248,82,77);"/>
                </g>
            </g>
        </g>
    </g>
</svg>
